<svg width="11" height="18" viewBox="0 0 11 18" fill="none" xmlns="http://www.w3.org/2000/svg">
<path d="M4.82897 12.7236C4.46314 12.7236 4.17779 12.6163 3.97293 12.4017C3.76806 12.1871 3.66563 11.9042 3.66563 11.553C3.66563 11.4652 3.66563 11.3774 3.66563 11.2896C3.66563 11.2018 3.66563 11.114 3.66563 11.0262C3.66563 10.5091 3.76075 10.0458 3.95098 9.63602C4.14609 9.22629 4.42168 8.84826 4.77776 8.50194C5.13871 8.15075 5.56308 7.8093 6.05085 7.47761C6.51424 7.16544 6.90202 6.8679 7.2142 6.58499C7.52637 6.30208 7.7605 5.99966 7.91659 5.67772C8.07756 5.35579 8.15804 4.98508 8.15804 4.5656C8.15804 4.05831 8.02634 3.61687 7.76294 3.24129C7.49954 2.86082 7.14103 2.56816 6.6874 2.36329C6.23864 2.15355 5.73624 2.04867 5.18017 2.04867C4.70215 2.04867 4.26559 2.12916 3.8705 2.29012C3.48027 2.45109 3.14371 2.70229 2.8608 3.04374C2.57789 3.3803 2.36571 3.81442 2.22425 4.3461C2.13158 4.59486 1.98524 4.78997 1.78526 4.93143C1.59014 5.07288 1.35845 5.14361 1.09018 5.14361C0.743855 5.14361 0.475578 5.04362 0.285346 4.84363C0.0951133 4.64364 -2.90107e-06 4.38268 -2.90107e-06 4.06075C-2.90107e-06 3.87052 0.021947 3.67053 0.0658468 3.46078C0.114624 3.24616 0.19023 3.0291 0.292662 2.8096C0.551183 2.22915 0.924332 1.72918 1.41211 1.30969C1.90476 0.890208 2.48034 0.568276 3.13883 0.3439C3.79733 0.114645 4.51192 1.78358e-05 5.2826 1.78358e-05C6.30206 1.78358e-05 7.2142 0.182934 8.01902 0.548765C8.82873 0.914597 9.46772 1.43652 9.93598 2.11452C10.4042 2.79253 10.6384 3.60224 10.6384 4.54365C10.6384 5.13385 10.5359 5.67041 10.3311 6.1533C10.1311 6.6362 9.83599 7.08252 9.44577 7.49225C9.05555 7.90198 8.57509 8.2922 8.00439 8.66291C7.48247 9.00923 7.07518 9.31409 6.78251 9.57749C6.49473 9.83601 6.28742 10.1018 6.1606 10.375C6.03866 10.6433 5.96793 10.9701 5.94842 11.3554C5.94842 11.414 5.94598 11.4749 5.9411 11.5383C5.9411 11.5969 5.93866 11.6579 5.93379 11.7213C5.90452 12.0237 5.79721 12.2676 5.61185 12.4529C5.4265 12.6334 5.16554 12.7236 4.82897 12.7236ZM4.85092 17.9623C4.57289 17.9623 4.31681 17.8941 4.08268 17.7575C3.85342 17.6258 3.67051 17.4477 3.53393 17.2234C3.39735 16.999 3.32906 16.7478 3.32906 16.4698C3.32906 16.1917 3.39735 15.9405 3.53393 15.7161C3.67051 15.4918 3.85342 15.3113 4.08268 15.1747C4.31681 15.043 4.57289 14.9772 4.85092 14.9772C5.13383 14.9772 5.38992 15.043 5.61917 15.1747C5.8533 15.3113 6.03866 15.4918 6.17523 15.7161C6.31181 15.9405 6.3801 16.1917 6.3801 16.4698C6.3801 16.7478 6.31181 16.999 6.17523 17.2234C6.03866 17.4477 5.8533 17.6258 5.61917 17.7575C5.38992 17.8941 5.13383 17.9623 4.85092 17.9623Z" fill="#BFBFBF"/>
</svg>
