<svg width="22" height="22" viewBox="0 0 22 22" fill="none" xmlns="http://www.w3.org/2000/svg">
<path d="M13.8092 10.3689L10.9953 7.55505L17.9047 0.636019C18.1488 0.391893 18.4379 0.22486 18.772 0.134919C19.1125 0.0449777 19.4562 0.0417656 19.8031 0.125282C20.15 0.202375 20.4552 0.37262 20.7186 0.636019C20.9755 0.892993 21.1458 1.19173 21.2293 1.53222C21.3192 1.87271 21.3192 2.2132 21.2293 2.55369C21.1458 2.89418 20.9755 3.19613 20.7186 3.45952L13.8092 10.3689ZM0.645654 20.6993C0.388679 20.4423 0.215222 20.1436 0.125281 19.8031C0.041764 19.4626 0.041764 19.1221 0.125281 18.7816C0.215222 18.4411 0.391892 18.1424 0.65529 17.8854L7.57433 10.9568L10.3882 13.7803L3.46916 20.7089C3.21861 20.9595 2.92309 21.1265 2.5826 21.21C2.24853 21.3 1.90804 21.3032 1.56113 21.2197C1.22063 21.1426 0.915477 20.9691 0.645654 20.6993ZM19.7356 21.0173L0.337285 1.61895C0.150978 1.43264 0.0578249 1.21421 0.0578249 0.963661C0.0642493 0.706687 0.157403 0.491471 0.337285 0.318013C0.517167 0.131707 0.732383 0.0385534 0.982933 0.0385534C1.23991 0.0385534 1.46155 0.131707 1.64785 0.318013L21.0269 19.7067C21.2132 19.8866 21.3064 20.1018 21.3064 20.3524C21.3064 20.6029 21.2132 20.8214 21.0269 21.0077C20.8535 21.1875 20.6383 21.2775 20.3813 21.2775C20.1307 21.2839 19.9155 21.1972 19.7356 21.0173Z" fill="#BFBFBF"/>
</svg>
