<svg width="26" height="24" viewBox="0 0 26 24" fill="none" xmlns="http://www.w3.org/2000/svg">
<path d="M12.5564 23.2144C12.3958 23.2144 12.2031 23.1598 11.9782 23.0506C11.7598 22.9478 11.5542 22.829 11.3615 22.6941C9.63978 21.5826 8.08187 20.4263 6.68778 19.2249C5.2937 18.03 4.09877 16.8029 3.10299 15.5437C2.10721 14.2781 1.3395 12.9933 0.799857 11.6891C0.266635 10.385 2.45376e-05 9.0712 2.45376e-05 7.74779C2.45376e-05 6.60425 0.183119 5.56029 0.549307 4.61591C0.915496 3.6651 1.42623 2.846 2.08152 2.15859C2.7368 1.46476 3.49488 0.93154 4.35574 0.558927C5.2166 0.186314 6.14492 7.93952e-06 7.1407 7.93952e-06C7.95659 7.93952e-06 8.70503 0.144556 9.38601 0.433652C10.0734 0.716324 10.6837 1.11142 11.217 1.61895C11.7502 2.12647 12.1967 2.71751 12.5564 3.39207C12.9226 2.71751 13.3691 2.12647 13.8959 1.61895C14.4291 1.11142 15.0362 0.716324 15.7172 0.433652C16.4046 0.144556 17.1563 7.93952e-06 17.9722 7.93952e-06C18.9679 7.93952e-06 19.8963 0.186314 20.7571 0.558927C21.618 0.93154 22.3729 1.46476 23.0217 2.15859C23.677 2.846 24.1877 3.6651 24.5539 4.61591C24.9265 5.56029 25.1128 6.60425 25.1128 7.74779C25.1128 9.0712 24.843 10.385 24.3034 11.6891C23.7702 12.9933 23.0024 14.2781 22.0002 15.5437C21.0045 16.8029 19.8095 18.03 18.4155 19.2249C17.0278 20.4263 15.4763 21.5826 13.761 22.6941C13.5618 22.829 13.3531 22.9478 13.1346 23.0506C12.9162 23.1598 12.7235 23.2144 12.5564 23.2144Z" fill="white"/>
</svg>
